<svg xmlns="http://www.w3.org/2000/svg" width="24" height="24" viewBox="0 0 24 24"><path d="M12 2.163c-5.421 0-9.837 4.416-9.837 9.837 0 4.351 2.82 8.065 6.839 9.387.5.092.682-.217.682-.482 0-.238-.009-.868-.014-1.703-2.782.604-3.369-1.342-3.369-1.342-.454-1.154-1.11-1.461-1.11-1.461-.908-.62.069-.608.069-.608 1.004.07 1.532 1.032 1.532 1.032.892 1.529 2.341 1.088 2.91.832.092-.646.35-1.088.636-1.338-2.221-.253-4.555-1.111-4.555-4.944 0-1.091.39-1.984 1.029-2.683-.103-.253-.446-1.272.098-2.652 0 0 .84-.269 2.75 1.025a9.564 9.564 0 012.5-.336c.849.004 1.705.115 2.504.337 1.909-1.294 2.748-1.025 2.748-1.025.546 1.38.202 2.399.1 2.652.64.699 1.028 1.592 1.028 2.683 0 3.842-2.337 4.687-4.566 4.936.359.309.678.919.678 1.852 0 1.336-.012 2.417-.012 2.747 0 .267.18.577.688.479C19.02 20.064 22 16.35 22 12c0-5.421-4.416-9.837-9.837-9.837z"/></svg>
